<svg width="32" height="32" viewBox="0 0 32 32" fill="none" xmlns="http://www.w3.org/2000/svg">
<path d="M28.625 0H3.875C1.97656 0 0.5 1.54688 0.5 3.375V28.125C0.5 30.0234 1.97656 31.5 3.875 31.5H13.5078V20.8125H9.07812V15.75H13.5078V11.9531C13.5078 7.59375 16.1094 5.13281 20.0469 5.13281C22.0156 5.13281 23.9844 5.48438 23.9844 5.48438V9.77344H21.8047C19.625 9.77344 18.9219 11.1094 18.9219 12.5156V15.75H23.7734L23 20.8125H18.9219V31.5H28.625C30.4531 31.5 32 30.0234 32 28.125V3.375C32 1.54688 30.4531 0 28.625 0Z" fill="white"/>
</svg>
