<svg width="32" height="32" viewBox="0 0 32 32" fill="none" xmlns="http://www.w3.org/2000/svg">
<path d="M15.7852 7.62891C11.2852 7.62891 7.69922 11.2852 7.69922 15.7148C7.69922 20.2148 11.2852 23.8008 15.7852 23.8008C20.2148 23.8008 23.8711 20.2148 23.8711 15.7148C23.8711 11.2852 20.2148 7.62891 15.7852 7.62891ZM15.7852 20.9883C12.9023 20.9883 10.5117 18.668 10.5117 15.7148C10.5117 12.832 12.832 10.5117 15.7852 10.5117C18.668 10.5117 20.9883 12.832 20.9883 15.7148C20.9883 18.668 18.668 20.9883 15.7852 20.9883ZM26.0508 7.34766C26.0508 8.40234 25.207 9.24609 24.1523 9.24609C23.0977 9.24609 22.2539 8.40234 22.2539 7.34766C22.2539 6.29297 23.0977 5.44922 24.1523 5.44922C25.207 5.44922 26.0508 6.29297 26.0508 7.34766ZM31.3945 9.24609C31.2539 6.71484 30.6914 4.46484 28.8633 2.63672C27.0352 0.808594 24.7852 0.246094 22.2539 0.105469C19.6523 -0.0351562 11.8477 -0.0351562 9.24609 0.105469C6.71484 0.246094 4.53516 0.808594 2.63672 2.63672C0.808594 4.46484 0.246094 6.71484 0.105469 9.24609C-0.0351562 11.8477 -0.0351562 19.6523 0.105469 22.2539C0.246094 24.7852 0.808594 26.9648 2.63672 28.8633C4.53516 30.6914 6.71484 31.2539 9.24609 31.3945C11.8477 31.5352 19.6523 31.5352 22.2539 31.3945C24.7852 31.2539 27.0352 30.6914 28.8633 28.8633C30.6914 26.9648 31.2539 24.7852 31.3945 22.2539C31.5352 19.6523 31.5352 11.8477 31.3945 9.24609ZM28.0195 24.9961C27.5273 26.4023 26.4023 27.457 25.0664 28.0195C22.957 28.8633 18.0352 28.6523 15.7852 28.6523C13.4648 28.6523 8.54297 28.8633 6.50391 28.0195C5.09766 27.457 4.04297 26.4023 3.48047 24.9961C2.63672 22.957 2.84766 18.0352 2.84766 15.7148C2.84766 13.4648 2.63672 8.54297 3.48047 6.43359C4.04297 5.09766 5.09766 4.04297 6.50391 3.48047C8.54297 2.63672 13.4648 2.84766 15.7852 2.84766C18.0352 2.84766 22.957 2.63672 25.0664 3.48047C26.4023 3.97266 27.457 5.09766 28.0195 6.43359C28.8633 8.54297 28.6523 13.4648 28.6523 15.7148C28.6523 18.0352 28.8633 22.957 28.0195 24.9961Z" fill="white"/>
</svg>
