<svg width="32" height="32" viewBox="0 0 32 32" fill="none" xmlns="http://www.w3.org/2000/svg">
<path d="M16 0C7.16129 0 0 7.22581 0 16C0 24.8387 7.16129 32 16 32C24.7742 32 32 24.8387 32 16C32 7.22581 24.7742 0 16 0ZM23.3548 10.9032C23.1613 13.4194 22.129 19.6129 21.5484 22.3871C21.3548 23.6129 20.9032 24 20.4516 24.0645C19.5484 24.129 18.8387 23.4194 17.9355 22.8387C16.5161 21.9355 15.7419 21.3548 14.3871 20.4516C12.7742 19.4194 13.8065 18.8387 14.7097 17.9355C14.9677 17.6774 19.0323 13.9355 19.0968 13.6129C19.1613 13.5484 19.1613 13.4194 19.0323 13.2903C18.9677 13.2258 18.8387 13.2903 18.7097 13.2903C18.5806 13.2903 16.3226 14.7742 12 17.7419C11.3548 18.1935 10.7742 18.3871 10.2581 18.3871C9.67742 18.3871 8.58064 18.0645 7.74194 17.8065C6.77419 17.4839 5.93548 17.2903 6 16.7742C6.06452 16.4516 6.45161 16.1935 7.22581 15.871C11.871 13.8065 14.9677 12.5161 16.5161 11.871C20.9677 10 21.9355 9.67742 22.5161 9.67742C22.6452 9.67742 22.9677 9.67742 23.1613 9.87097C23.2258 9.93548 23.3548 10.129 23.3548 10.2581C23.4194 10.5161 23.4194 10.7097 23.3548 10.9032Z" fill="white"/>
</svg>
