<svg width="33" height="28" viewBox="0 0 33 28" fill="none" xmlns="http://www.w3.org/2000/svg">
<path d="M17 0C8.125 0 1 5.875 1 13C1 16.125 2.3125 19 4.5 21.1875C3.75 24.375 1.125 27.125 1.125 27.1875C1 27.3125 0.9375 27.5625 1 27.75C1.125 27.9375 1.25 28 1.5 28C5.625 28 8.75 26.0625 10.25 24.8125C12.3125 25.5625 14.5625 26 17 26C25.8125 26 32.9375 20.1875 32.9375 13C32.9375 5.875 25.8125 0 17 0ZM17 25C14.75 25 12.625 24.625 10.625 23.875L10.0625 23.6875L9.625 24.0625C8.375 25.0625 5.875 26.6875 2.5625 27C3.5 25.8125 4.9375 23.75 5.5 21.4375L5.625 20.875L5.25 20.5C3.125 18.375 2 15.75 2 13C2 6.4375 8.6875 1 17 1C25.25 1 32 6.4375 32 13C32 19.625 25.25 25 17 25ZM20.375 7.6875C20.1875 7.5 19.875 7.5 19.6875 7.6875C19.5 7.875 19.5 8.1875 19.6875 8.375L24.3125 13L19.6875 17.6875C19.5 17.875 19.5 18.1875 19.6875 18.375C19.75 18.5 19.875 18.5 20 18.5C20.1875 18.5 20.25 18.5 20.375 18.375L25.375 13.375C25.5625 13.1875 25.5625 12.875 25.375 12.6875L20.375 7.6875ZM14.25 7.6875C14.0625 7.5 13.75 7.5 13.5625 7.6875L8.5625 12.6875C8.375 12.875 8.375 13.1875 8.5625 13.375L13.5625 18.375C13.6875 18.5 13.8125 18.5 13.9375 18.5C14.0625 18.5 14.1875 18.5 14.25 18.375C14.4375 18.1875 14.4375 17.875 14.25 17.6875L9.625 13L14.25 8.375C14.4375 8.1875 14.4375 7.875 14.25 7.6875Z" fill="#DF0540"/>
</svg>
