<svg width="34" height="32" viewBox="0 0 34 32" fill="none" xmlns="http://www.w3.org/2000/svg">
<path d="M32.125 0.375C31.75 0.125 31.375 0 31 0C30.625 0 30.3125 0.125 30 0.3125L2 16.25C1.3125 16.6875 0.9375 17.375 1 18.125C1 18.8125 1.5 19.5 2.1875 19.8125L8.625 22.5L12.5 31.6875C12.5625 31.8125 12.625 31.875 12.75 31.9375C12.8125 32 12.875 32 12.9375 32C13.0625 32 13.1875 32 13.25 31.875L18.625 26.75L26.125 29.875C26.375 30 26.625 30 26.9375 30C27.25 30 27.5625 29.9375 27.875 29.75C28.4375 29.5 28.8125 28.9375 28.875 28.3125L32.875 2.375C33.0625 1.5625 32.75 0.8125 32.125 0.375ZM2 18.0625C1.9375 17.6875 2.125 17.375 2.5 17.1875L30.5 1.1875C30.5 1.125 30.5625 1.125 30.625 1.125L8.75 21.5L2.5625 18.9375C2.25 18.8125 2 18.4375 2 18.0625ZM26.6875 6.1875L12.5625 23.75C12.5 23.8125 12.5 23.9375 12.5 24V29.0625L9.5625 22.1875L26.6875 6.1875ZM13.5 30.375V24.5625L17.6875 26.3125L13.5 30.375ZM27.9375 28.1875C27.9375 28.5 27.75 28.75 27.4375 28.875C27.3125 29 27.125 29 27 29C26.8125 29 26.6875 29 26.5625 28.9375L13.875 23.6875L31.75 1.5C31.875 1.6875 32 1.9375 31.9375 2.1875L27.9375 28.1875Z" fill="#DF0540"/>
</svg>
