<svg width="36" height="32" viewBox="0 0 36 32" fill="none" xmlns="http://www.w3.org/2000/svg">
<path d="M34 2H27L25.25 0.3125C25.0625 0.125 24.8125 0 24.5625 0H20C18.875 0 18 0.9375 18 2V12C18 13.125 18.875 14 20 14H34C35.0625 14 36 13.125 36 12V4C36 2.9375 35.0625 2 34 2ZM35 12C35 12.5625 34.5 13 34 13H20C19.4375 13 19 12.5625 19 12V2C19 1.5 19.4375 1 20 1H24.5625L26.5625 3H34C34.5 3 35 3.5 35 4V12ZM34 20H27L25.25 18.3125C25.0625 18.125 24.8125 18 24.5625 18H20C18.875 18 18 18.9375 18 20V30C18 31.125 18.875 32 20 32H34C35.0625 32 36 31.125 36 30V22C36 20.9375 35.0625 20 34 20ZM35 30C35 30.5625 34.5 31 34 31H20C19.4375 31 19 30.5625 19 30V20C19 19.5 19.4375 19 20 19H24.5625L26.5625 21H34C34.5 21 35 21.5 35 22V30ZM15.5 8.5C15.75 8.5 16 8.3125 16 8C16 7.75 15.75 7.5 15.5 7.5H1V0.5C1 0.25 0.75 0 0.5 0C0.1875 0 0 0.25 0 0.5V24C0 25.4375 1.0625 26.5 2.5 26.5H15.5C15.75 26.5 16 26.3125 16 26C16 25.75 15.75 25.5 15.5 25.5H2.5C1.625 25.5 1 24.875 1 24V8.5H15.5Z" fill="#DF0540"/>
</svg>
