<svg width="41" height="32" viewBox="0 0 41 32" fill="none" xmlns="http://www.w3.org/2000/svg">
<path d="M15.25 5H12.4375C10.9375 5 9.75 6.25 9.75 7.75C9.75 8 9.9375 8.25 10.25 8.25C10.5 8.25 10.75 8 10.75 7.75C10.75 6.8125 11.5 6 12.4375 6H15.25C16.3125 6 17.25 6.875 17.25 8C17.25 8.75 16.8125 9.375 16.125 9.75L13.75 10.9375C13.5625 11.0625 13.5 11.1875 13.5 11.375V13C13.5 13.3125 13.6875 13.5 14 13.5C14.25 13.5 14.5 13.3125 14.5 13V11.6875L16.5625 10.625C17.5625 10.125 18.25 9.125 18.25 8C18.25 6.375 16.875 5 15.25 5ZM14 15.3125C13.5625 15.3125 13.25 15.625 13.25 16C13.25 16.4375 13.5625 16.75 14 16.75C14.375 16.75 14.6875 16.4375 14.6875 16C14.6875 15.625 14.375 15.3125 14 15.3125ZM27 11C27 4.9375 21.125 0 14 0C6.8125 0 1 4.9375 1 11C1 13.5 1.9375 15.75 3.5625 17.625C2.5625 19.6875 1.125 21.1875 1.125 21.25C0.9375 21.375 0.9375 21.5625 1 21.75C1.0625 21.9375 1.25 22 1.4375 22C3.875 22 5.875 21.3125 7.4375 20.5C9.375 21.5 11.5625 22 14 22C21.125 22 27 17.125 27 11ZM14 21C11.8125 21 9.75 20.5625 7.875 19.625L7.4375 19.375L7 19.625C5.5625 20.375 4.125 20.8125 2.625 20.9375C3.125 20.25 3.875 19.25 4.4375 18.0625L4.75 17.4375L4.3125 16.9375C2.8125 15.1875 2 13.1875 2 11C2 5.5 7.375 1 14 1C20.5625 1 26 5.5 26 11C26 16.5625 20.5625 21 14 21ZM38.4375 27.75C40 25.875 41 23.5625 41 21C41 15.4375 36.4375 10.8125 30.5 10.125C30.1875 10.125 29.9375 10.375 29.9375 10.6875C30 10.875 30.125 11.0625 30.375 11.125C35.8125 11.75 40 15.9375 40 21C40 23.25 39.1875 25.375 37.6875 27.125L37.25 27.625L37.5625 28.25C38.125 29.3125 38.8125 30.3125 39.3125 31C37.9375 30.8125 36.5625 30.4375 35.1875 29.75L34.75 29.5625L34.3125 29.75C32.6875 30.5625 30.8125 31 29 31C24.375 31 20.4375 28.4375 18.8125 24.8125C18.6875 24.5625 18.4375 24.4375 18.25 24.5H18.1875C17.9375 24.5625 17.75 24.9375 17.875 25.1875C19.6875 29.1875 23.9375 32 29 32C31.0625 32 33.0625 31.5 34.75 30.6875C36.3125 31.375 38.25 32 40.5 32C40.6875 32 40.875 31.9375 40.9375 31.75C41 31.5625 40.9375 31.375 40.8125 31.25C40.8125 31.1875 39.4375 29.75 38.4375 27.75ZM25.5 21.6875C25.3125 21.875 25.3125 22.1875 25.5 22.4375L28.25 25.125C28.3125 25.25 28.4375 25.25 28.5625 25.25C28.6875 25.25 28.875 25.25 28.9375 25.125L34.6875 19.125C34.875 18.9375 34.875 18.625 34.6875 18.4375C34.4375 18.25 34.125 18.25 33.9375 18.4375L28.5625 24.0625L26.25 21.6875C26 21.5 25.6875 21.5 25.5 21.6875Z" fill="#DF0540"/>
</svg>
