<svg width="202" height="40" viewBox="0 0 202 40" fill="none" xmlns="http://www.w3.org/2000/svg">
<path d="M61.6754 29.4474H60.8037L54.0559 13.1109C53.6685 12.2069 53.3564 11.4105 53.1197 10.7217L52.7968 13.1754L50.1494 30.642H48.5674L52.3771 7.36401H53.2811L60.4808 24.4754C60.8467 25.2718 61.1373 26.0251 61.3525 26.7354C61.4171 26.4987 61.7507 25.7561 62.3534 24.5077L70.3925 7.36401H71.2642L74.7834 30.642H73.1691L70.6508 13.1109C70.4786 12.0132 70.3925 11.1845 70.3925 10.6249C70.371 10.6464 70.3172 10.754 70.2311 10.9477C70.1665 11.1199 70.0374 11.4212 69.8436 11.8517C69.6715 12.2607 69.4885 12.6912 69.2948 13.1431L61.6754 29.4474Z" fill="white"/>
<path d="M81.1252 30.642V7.55773H91.8441V8.91373H82.6749V17.4049H90.9724V18.7286H82.6749V29.286H92.1992V30.642H81.1252Z" fill="white"/>
<path d="M102.665 8.91373H94.8517V7.55773H112.028V8.91373H104.215V30.642H102.665V8.91373Z" fill="white"/>
<path d="M115.773 22.6351L112.447 30.642H110.801L120.519 7.3963H121.423L131.173 30.642H129.43L126.104 22.6351H115.773ZM120.874 9.97915C120.852 10.0007 120.809 10.1298 120.745 10.3666C120.443 11.2921 120.153 12.0777 119.873 12.7234L116.322 21.3114H125.555L122.004 12.7557C121.251 11.1199 120.874 10.1944 120.874 9.97915Z" fill="white"/>
<path d="M141.715 25.9606L149.463 7.55773H151.11L141.166 30.8357H140.262L130.286 7.55773H132.029L139.778 25.896C140.316 27.2089 140.649 28.1129 140.779 28.608C140.951 27.9192 141.263 27.0368 141.715 25.9606Z" fill="white"/>
<path d="M155.88 30.642V7.55773H157.43V30.642H155.88Z" fill="white"/>
<path d="M167.423 11.2383L167.488 13.9826V30.642H165.938V7.36401H166.648L181.855 24.8951C182.888 26.122 183.685 27.1013 184.244 27.8331C184.158 26.8 184.115 25.6162 184.115 24.2817V7.55773H185.665V30.8357H184.954L169.457 12.9817C168.381 11.7549 167.692 10.937 167.391 10.528L167.423 11.2383Z" fill="white"/>
<path d="M194.188 30.642V7.55773H195.738V30.642H194.188Z" fill="white"/>
<path d="M40.1565 36.4584H29.7958L26.7188 25.8872L20.1052 36.3018L13.7459 25.8334L10.6787 36.4584H0L10.4146 0.259264L20.1052 15.9374L29.8985 0L40.1565 36.4584Z" fill="#DF0540"/>
<path style="mix-blend-mode:multiply" d="M29.8984 0L26.7188 25.8872L29.7957 36.4584H40.1564L29.8984 0Z" fill="url(#paint0_linear_412_7246)"/>
<path style="mix-blend-mode:multiply" d="M10.4197 0.244629L13.7461 25.8286L10.6839 36.4584H0.000232697L10.4197 0.244629Z" fill="url(#paint1_linear_412_7246)"/>
<defs>
<linearGradient id="paint0_linear_412_7246" x1="27.6922" y1="17.9675" x2="42.211" y2="19.7481" gradientUnits="userSpaceOnUse">
<stop offset="0.1" stop-color="#B4AFB3"/>
<stop offset="0.16" stop-color="#C8C4C7"/>
<stop offset="0.23" stop-color="#DCDADB"/>
<stop offset="0.32" stop-color="#ECEBEC"/>
<stop offset="0.43" stop-color="#F7F6F7"/>
<stop offset="0.58" stop-color="#FDFDFD"/>
<stop offset="1" stop-color="white"/>
</linearGradient>
<linearGradient id="paint1_linear_412_7246" x1="12.7237" y1="17.9675" x2="-1.79504" y2="19.7481" gradientUnits="userSpaceOnUse">
<stop offset="0.1" stop-color="#B4AFB3"/>
<stop offset="0.16" stop-color="#C8C4C7"/>
<stop offset="0.23" stop-color="#DCDADB"/>
<stop offset="0.32" stop-color="#ECEBEC"/>
<stop offset="0.43" stop-color="#F7F6F7"/>
<stop offset="0.58" stop-color="#FDFDFD"/>
<stop offset="1" stop-color="white"/>
</linearGradient>
</defs>
</svg>
