<svg width="202" height="40" viewBox="0 0 202 40" fill="none" xmlns="http://www.w3.org/2000/svg">
<path d="M61.6754 29.4477H60.8037L54.0559 13.1111C53.6685 12.2071 53.3564 11.4107 53.1197 10.722L52.7968 13.1757L50.1494 30.6422H48.5674L52.3771 7.36426H53.2811L60.4808 24.4757C60.8467 25.272 61.1373 26.0254 61.3525 26.7357C61.4171 26.4989 61.7507 25.7563 62.3534 24.508L70.3925 7.36426H71.2642L74.7834 30.6422H73.1691L70.6508 13.1111C70.4786 12.0134 70.3925 11.1847 70.3925 10.6251C70.371 10.6466 70.3172 10.7543 70.2311 10.948C70.1665 11.1202 70.0374 11.4215 69.8436 11.852C69.6715 12.2609 69.4885 12.6914 69.2948 13.1434L61.6754 29.4477Z" fill="black"/>
<path d="M81.1252 30.6422V7.55797H91.8441V8.91397H82.6749V17.4051H90.9724V18.7288H82.6749V29.2862H92.1992V30.6422H81.1252Z" fill="black"/>
<path d="M102.665 8.91397H94.8517V7.55797H112.028V8.91397H104.215V30.6422H102.665V8.91397Z" fill="black"/>
<path d="M115.773 22.6354L112.447 30.6422H110.801L120.519 7.39654H121.423L131.173 30.6422H129.43L126.104 22.6354H115.773ZM120.874 9.9794C120.852 10.0009 120.809 10.1301 120.745 10.3668C120.443 11.2923 120.153 12.078 119.873 12.7237L116.322 21.3117H125.555L122.004 12.756C121.251 11.1202 120.874 10.1946 120.874 9.9794Z" fill="black"/>
<path d="M141.715 25.9608L149.463 7.55797H151.11L141.166 30.836H140.262L130.286 7.55797H132.029L139.778 25.8962C140.316 27.2092 140.649 28.1132 140.779 28.6082C140.951 27.9195 141.263 27.037 141.715 25.9608Z" fill="black"/>
<path d="M155.88 30.6422V7.55797H157.43V30.6422H155.88Z" fill="black"/>
<path d="M167.423 11.2385L167.488 13.9828V30.6422H165.938V7.36426H166.648L181.855 24.8954C182.888 26.1222 183.685 27.1016 184.244 27.8334C184.158 26.8002 184.115 25.6164 184.115 24.282V7.55797H185.665V30.836H184.954L169.457 12.982C168.381 11.7551 167.692 10.9372 167.391 10.5283L167.423 11.2385Z" fill="black"/>
<path d="M194.188 30.6422V7.55797H195.738V30.6422H194.188Z" fill="black"/>
<path d="M40.1565 36.4584H29.7958L26.7188 25.8872L20.1052 36.3018L13.7459 25.8334L10.6787 36.4584H0L10.4146 0.259264L20.1052 15.9374L29.8985 0L40.1565 36.4584Z" fill="#DF0540"/>
<path style="mix-blend-mode:multiply" d="M29.8985 0L26.7189 25.8872L29.7958 36.4584H40.1566L29.8985 0Z" fill="url(#paint0_linear_333_7290)"/>
<path style="mix-blend-mode:multiply" d="M10.4194 0.244629L13.7458 25.8286L10.6836 36.4584H-1.14441e-05L10.4194 0.244629Z" fill="url(#paint1_linear_333_7290)"/>
<defs>
<linearGradient id="paint0_linear_333_7290" x1="27.6923" y1="17.9675" x2="42.2111" y2="19.7481" gradientUnits="userSpaceOnUse">
<stop offset="0.1" stop-color="#B4AFB3"/>
<stop offset="0.16" stop-color="#C8C4C7"/>
<stop offset="0.23" stop-color="#DCDADB"/>
<stop offset="0.32" stop-color="#ECEBEC"/>
<stop offset="0.43" stop-color="#F7F6F7"/>
<stop offset="0.58" stop-color="#FDFDFD"/>
<stop offset="1" stop-color="white"/>
</linearGradient>
<linearGradient id="paint1_linear_333_7290" x1="12.7235" y1="17.9675" x2="-1.79529" y2="19.7481" gradientUnits="userSpaceOnUse">
<stop offset="0.1" stop-color="#B4AFB3"/>
<stop offset="0.16" stop-color="#C8C4C7"/>
<stop offset="0.23" stop-color="#DCDADB"/>
<stop offset="0.32" stop-color="#ECEBEC"/>
<stop offset="0.43" stop-color="#F7F6F7"/>
<stop offset="0.58" stop-color="#FDFDFD"/>
<stop offset="1" stop-color="white"/>
</linearGradient>
</defs>
</svg>
