<svg width="498" height="82" viewBox="0 0 498 82" fill="none" xmlns="http://www.w3.org/2000/svg">
<path d="M126.08 60.198H124.298L110.504 26.802C109.712 24.954 109.074 23.326 108.59 21.918L107.93 26.934L102.518 62.64H99.284L107.072 15.054H108.92L123.638 50.034C124.386 51.662 124.98 53.202 125.42 54.654C125.552 54.17 126.234 52.652 127.466 50.1L143.9 15.054H145.682L152.876 62.64H149.576L144.428 26.802C144.076 24.558 143.9 22.864 143.9 21.72C143.856 21.764 143.746 21.984 143.57 22.38C143.438 22.732 143.174 23.348 142.778 24.228C142.426 25.064 142.052 25.944 141.656 26.868L126.08 60.198Z" fill="#222222"/>
<path d="M165.84 62.64V15.45H187.752V18.222H169.008V35.58H185.97V38.286H169.008V59.868H188.478V62.64H165.84Z" fill="#222222"/>
<path d="M209.873 18.222H193.901V15.45H229.013V18.222H213.041V62.64H209.873V18.222Z" fill="#222222"/>
<path d="M236.669 46.272L229.871 62.64H226.505L246.371 15.12H248.219L268.151 62.64H264.587L257.789 46.272H236.669ZM247.097 20.4C247.053 20.444 246.965 20.708 246.833 21.192C246.217 23.084 245.623 24.69 245.051 26.01L237.791 43.566H256.667L249.407 26.076C247.867 22.732 247.097 20.84 247.097 20.4Z" fill="#222222"/>
<path d="M289.701 53.07L305.541 15.45H308.907L288.579 63.036H286.731L266.337 15.45H269.901L285.741 52.938C286.841 55.622 287.523 57.47 287.787 58.482C288.139 57.074 288.777 55.27 289.701 53.07Z" fill="#222222"/>
<path d="M318.659 62.64V15.45H321.827V62.64H318.659Z" fill="#222222"/>
<path d="M342.255 22.974L342.387 28.584V62.64H339.219V15.054H340.671L371.757 50.892C373.869 53.4 375.497 55.402 376.641 56.898C376.465 54.786 376.377 52.366 376.377 49.638V15.45H379.545V63.036H378.093L346.413 26.538C344.213 24.03 342.805 22.358 342.189 21.522L342.255 22.974Z" fill="#222222"/>
<path d="M396.969 62.64V15.45H400.137V62.64H396.969Z" fill="#222222"/>
<path d="M82.09 74.53H60.91L54.62 52.92L41.1 74.21L28.1 52.81L21.83 74.53H0L21.29 0.53L41.1 32.58L61.12 0L82.09 74.53Z" fill="#DF0540"/>
<path style="mix-blend-mode:multiply" d="M61.12 0L54.62 52.92L60.91 74.53H82.09L61.12 0Z" fill="url(#paint0_linear_426_8283)"/>
<path style="mix-blend-mode:multiply" d="M21.3 0.5L28.1 52.8L21.84 74.53H1.52588e-05L21.3 0.5Z" fill="url(#paint1_linear_426_8283)"/>
<path d="M440.895 39.8145C440.895 43.1139 439.979 45.6387 438.146 47.3887C436.314 49.1296 433.676 50 430.23 50H424.639V30.0117H430.818C433.999 30.0117 436.474 30.8685 438.242 32.582C440.01 34.2956 440.895 36.7064 440.895 39.8145ZM437.449 39.9238C437.449 35.1387 435.212 32.7461 430.736 32.7461H427.906V47.252H430.23C435.043 47.252 437.449 44.8092 437.449 39.9238ZM462.947 39.9785C462.947 43.2324 462.132 45.7617 460.5 47.5664C458.878 49.3711 456.576 50.2734 453.596 50.2734C450.579 50.2734 448.259 49.3802 446.637 47.5938C445.023 45.7982 444.217 43.2507 444.217 39.9512C444.217 36.6517 445.028 34.1178 446.65 32.3496C448.282 30.5814 450.606 29.6973 453.623 29.6973C456.594 29.6973 458.891 30.5951 460.514 32.3906C462.136 34.1862 462.947 36.7155 462.947 39.9785ZM447.689 39.9785C447.689 42.4395 448.186 44.3079 449.18 45.584C450.173 46.8509 451.645 47.4844 453.596 47.4844C455.537 47.4844 457 46.8555 457.984 45.5977C458.978 44.3398 459.475 42.4668 459.475 39.9785C459.475 37.5267 458.982 35.6673 457.998 34.4004C457.023 33.1335 455.564 32.5 453.623 32.5C451.663 32.5 450.182 33.1335 449.18 34.4004C448.186 35.6673 447.689 37.5267 447.689 39.9785ZM475.744 32.5273C473.867 32.5273 472.39 33.1927 471.314 34.5234C470.239 35.8542 469.701 37.6908 469.701 40.0332C469.701 42.485 470.216 44.3398 471.246 45.5977C472.285 46.8555 473.785 47.4844 475.744 47.4844C476.592 47.4844 477.412 47.4023 478.205 47.2383C478.998 47.0651 479.823 46.8464 480.68 46.582V49.3848C479.112 49.9772 477.335 50.2734 475.348 50.2734C472.422 50.2734 470.175 49.3893 468.607 47.6211C467.04 45.8438 466.256 43.3053 466.256 40.0059C466.256 37.9277 466.634 36.1094 467.391 34.5508C468.156 32.9922 469.259 31.7982 470.699 30.9688C472.139 30.1393 473.83 29.7246 475.771 29.7246C477.813 29.7246 479.7 30.153 481.432 31.0098L480.256 33.7305C479.581 33.4115 478.866 33.1335 478.109 32.8965C477.362 32.6504 476.574 32.5273 475.744 32.5273ZM496.512 44.5723C496.512 46.3496 495.869 47.7441 494.584 48.7559C493.299 49.7676 491.526 50.2734 489.266 50.2734C487.005 50.2734 485.155 49.9225 483.715 49.2207V46.1309C484.626 46.5592 485.592 46.8965 486.613 47.1426C487.643 47.3887 488.6 47.5117 489.484 47.5117C490.779 47.5117 491.731 47.2656 492.342 46.7734C492.962 46.2812 493.271 45.6204 493.271 44.791C493.271 44.0436 492.989 43.4102 492.424 42.8906C491.859 42.3711 490.692 41.7559 488.924 41.0449C487.101 40.3066 485.816 39.4635 485.068 38.5156C484.321 37.5677 483.947 36.4284 483.947 35.0977C483.947 33.4297 484.54 32.1172 485.725 31.1602C486.91 30.2031 488.5 29.7246 490.496 29.7246C492.41 29.7246 494.315 30.1439 496.211 30.9824L495.172 33.6484C493.395 32.901 491.809 32.5273 490.414 32.5273C489.357 32.5273 488.555 32.7598 488.008 33.2246C487.461 33.6803 487.188 34.2865 487.188 35.043C487.188 35.5625 487.297 36.0091 487.516 36.3828C487.734 36.7474 488.094 37.0938 488.596 37.4219C489.097 37.75 489.999 38.1829 491.303 38.7207C492.77 39.3314 493.846 39.901 494.529 40.4297C495.213 40.9583 495.714 41.5553 496.033 42.2207C496.352 42.8861 496.512 43.6699 496.512 44.5723Z" fill="#999999"/>
<defs>
<linearGradient id="paint0_linear_426_8283" x1="56.61" y1="36.73" x2="86.29" y2="40.37" gradientUnits="userSpaceOnUse">
<stop offset="0.1" stop-color="#B4AFB3"/>
<stop offset="0.16" stop-color="#C8C4C7"/>
<stop offset="0.23" stop-color="#DCDADB"/>
<stop offset="0.32" stop-color="#ECEBEC"/>
<stop offset="0.43" stop-color="#F7F6F7"/>
<stop offset="0.58" stop-color="#FDFDFD"/>
<stop offset="1" stop-color="white"/>
</linearGradient>
<linearGradient id="paint1_linear_426_8283" x1="26.01" y1="36.73" x2="-3.66997" y2="40.37" gradientUnits="userSpaceOnUse">
<stop offset="0.1" stop-color="#B4AFB3"/>
<stop offset="0.16" stop-color="#C8C4C7"/>
<stop offset="0.23" stop-color="#DCDADB"/>
<stop offset="0.32" stop-color="#ECEBEC"/>
<stop offset="0.43" stop-color="#F7F6F7"/>
<stop offset="0.58" stop-color="#FDFDFD"/>
<stop offset="1" stop-color="white"/>
</linearGradient>
</defs>
</svg>
